<?xml version="1.0" encoding="utf-8"?>
<!-- Generator: Adobe Illustrator 27.0.0, SVG Export Plug-In . SVG Version: 6.00 Build 0)  -->
<svg version="1.1" id="Layer_1" xmlns="http://www.w3.org/2000/svg" xmlns:xlink="http://www.w3.org/1999/xlink" x="0px" y="0px"
	 viewBox="0 0 500 500" style="enable-background:new 0 0 500 500;" xml:space="preserve">
<style type="text/css">
	.st0{fill:#54C3F3;}
	.st1{fill:#6CCCEC;}
	.st2{fill:#57CCF4;}
	.st3{fill:#7E8CF0;}
	.st4{fill:#5AB0F2;}
	.st5{fill:#669DF0;}
	.st6{fill:#DCCAAF;}
	.st7{fill:#93CCD6;}
	.st8{fill:#BDCABE;}
	.st9{fill:#FC9997;}
	.st10{fill:#FFC09B;}
	.st11{fill:#FDB09D;}
	.st12{fill:#D845EE;}
	.st13{fill:#E739CB;}
	.st14{fill:#DE3DE1;}
	.st15{fill:#9677F2;}
	.st16{fill:#D353F4;}
	.st17{fill:#B959F3;}
	.st18{fill:#F557A1;}
	.st19{fill:#EB31B3;}
	.st20{fill:#F147AC;}
	.st21{fill:#F98693;}
	.st22{fill:#F76594;}
	.st23{fill:#F87591;}
	.st24{fill:#46C7F2;}
	.st25{fill:#70C7E0;}
	.st26{fill:#4CC9F4;}
	.st27{fill:#7090F0;}
	.st28{fill:#46B5F1;}
	.st29{fill:#52A0F0;}
	.st30{fill:#EDC69F;}
	.st31{fill:#9DC7C9;}
	.st32{fill:#C7C6B1;}
	.st33{fill:#FB8C89;}
	.st34{fill:#FEB08C;}
	.st35{fill:#FCA18D;}
	.st36{fill:#D13CF0;}
	.st37{fill:#E02FD1;}
	.st38{fill:#D934E5;}
	.st39{fill:#8776F1;}
	.st40{fill:#C04BF3;}
	.st41{fill:#A457F2;}
	.st42{fill:#F54891;}
	.st43{fill:#E830BD;}
	.st44{fill:#EE34AC;}
	.st45{fill:#F97D84;}
	.st46{fill:#F65C82;}
	.st47{fill:#F76A86;}
	.st48{fill:#34BDF0;}
	.st49{fill:#67C6E3;}
	.st50{fill:#39C2F2;}
	.st51{fill:#6C83F1;}
	.st52{fill:#3EABF0;}
	.st53{fill:#539CF1;}
	.st54{fill:#DBC09C;}
	.st55{fill:#82C3CF;}
	.st56{fill:#B5BFB0;}
	.st57{fill:#FC937F;}
	.st58{fill:#FDC08C;}
	.st59{fill:#FD9E7F;}
	.st60{fill:#CD2CEA;}
	.st61{fill:#E226C2;}
	.st62{fill:#D827D7;}
	.st63{fill:#895DF1;}
	.st64{fill:#C438F5;}
	.st65{fill:#9F4FF3;}
	.st66{fill:#F34783;}
	.st67{fill:#E927AA;}
	.st68{fill:#EF2F95;}
	.st69{fill:#FA817C;}
	.st70{fill:#F65D7A;}
	.st71{fill:#F86E79;}
	.st72{fill:#28BEF1;}
	.st73{fill:#57BFDE;}
	.st74{fill:#2FC0F1;}
	.st75{fill:#5482F0;}
	.st76{fill:#31ACEF;}
	.st77{fill:#3F98F0;}
	.st78{fill:#EDB886;}
	.st79{fill:#93BDBC;}
	.st80{fill:#D5BA94;}
	.st81{fill:#FA886E;}
	.st82{fill:#FEB07D;}
	.st83{fill:#FD9B79;}
	.st84{fill:#BE18EE;}
	.st85{fill:#DC17BA;}
	.st86{fill:#CC15D6;}
	.st87{fill:#6D63F1;}
	.st88{fill:#AB24F6;}
	.st89{fill:#8B44F4;}
	.st90{fill:#F23367;}
	.st91{fill:#E61897;}
	.st92{fill:#EC187B;}
	.st93{fill:#FA786A;}
	.st94{fill:#F64E61;}
	.st95{fill:#F76466;}
</style>
<circle class="st0" cx="363.7" cy="138.3" r="8.1"/>
<circle class="st1" cx="292" cy="98.5" r="8.1"/>
<circle class="st2" cx="330.5" cy="113.7" r="8.1"/>
<circle class="st3" cx="412.4" cy="249.2" r="8.1"/>
<circle class="st4" cx="389.5" cy="170.6" r="8.1"/>
<circle class="st5" cx="406.1" cy="208.4" r="8.1"/>
<circle class="st6" cx="170.1" cy="116.9" r="8.1"/>
<circle class="st7" cx="248.7" cy="93.7" r="8.1"/>
<circle class="st8" cx="207.9" cy="100.1" r="8.1"/>
<circle class="st9" cx="98.3" cy="214.6" r="8.1"/>
<circle class="st10" cx="137.9" cy="142.8" r="8.1"/>
<circle class="st11" cx="113.4" cy="176.1" r="8.1"/>
<circle class="st12" cx="336" cy="389.2" r="8.1"/>
<circle class="st13" cx="257.4" cy="412.4" r="8.1"/>
<circle class="st14" cx="298.2" cy="405.9" r="8.1"/>
<circle class="st15" cx="407.7" cy="291.5" r="8.1"/>
<circle class="st16" cx="368.2" cy="363.3" r="8.1"/>
<circle class="st17" cx="392.7" cy="330" r="8.1"/>
<circle class="st18" cx="142.4" cy="367.8" r="8.1"/>
<circle class="st19" cx="214" cy="407.6" r="8.1"/>
<circle class="st20" cx="175.6" cy="392.4" r="8.1"/>
<circle class="st21" cx="93.7" cy="256.8" r="8.1"/>
<circle class="st22" cx="116.6" cy="335.5" r="8.1"/>
<circle class="st23" cx="100" cy="297.7" r="8.1"/>
<circle class="st24" cx="363.8" cy="109.4" r="9.2"/>
<circle class="st25" cx="277.8" cy="73.4" r="9.2"/>
<circle class="st26" cx="323.2" cy="85.8" r="9.2"/>
<circle class="st27" cx="432.8" cy="228.8" r="9.2"/>
<circle class="st28" cx="397" cy="142.7" r="9.2"/>
<circle class="st29" cx="420.6" cy="183.4" r="9.2"/>
<circle class="st30" cx="142.2" cy="109.4" r="9.2"/>
<circle class="st31" cx="228.2" cy="73.4" r="9.2"/>
<circle class="st32" cx="182.9" cy="85.8" r="9.2"/>
<circle class="st33" cx="73.3" cy="228.8" r="9.2"/>
<circle class="st34" cx="109" cy="142.7" r="9.2"/>
<circle class="st35" cx="85.5" cy="183.4" r="9.2"/>
<circle class="st36" cx="363.8" cy="396.7" r="9.2"/>
<circle class="st37" cx="277.8" cy="432.7" r="9.2"/>
<circle class="st38" cx="323.2" cy="420.3" r="9.2"/>
<circle class="st39" cx="432.8" cy="277.2" r="9.2"/>
<circle class="st40" cx="397" cy="363.4" r="9.2"/>
<circle class="st41" cx="420.6" cy="322.6" r="9.2"/>
<circle class="st42" cx="142.2" cy="396.7" r="9.2"/>
<circle class="st43" cx="228.2" cy="432.7" r="9.2"/>
<circle class="st44" cx="182.9" cy="420.3" r="9.2"/>
<circle class="st45" cx="73.3" cy="277.2" r="9.2"/>
<circle class="st46" cx="109" cy="363.4" r="9.2"/>
<circle class="st47" cx="85.5" cy="322.6" r="9.2"/>
<circle class="st48" cx="393.5" cy="107.3" r="10.3"/>
<circle class="st49" cx="302.6" cy="56.8" r="10.3"/>
<circle class="st50" cx="351.4" cy="76.1" r="10.3"/>
<circle class="st51" cx="455.4" cy="248.2" r="10.3"/>
<circle class="st52" cx="426.3" cy="148.3" r="10.3"/>
<circle class="st53" cx="447.4" cy="196.4" r="10.3"/>
<circle class="st54" cx="147.7" cy="80.2" r="10.3"/>
<ellipse transform="matrix(0.2298 -0.9732 0.9732 0.2298 141.2924 279.9306)" class="st55" cx="247.5" cy="50.7" rx="10.3" ry="10.3"/>
<circle class="st56" cx="195.7" cy="58.9" r="10.3"/>
<circle class="st57" cx="56.6" cy="204.2" r="10.3"/>
<circle class="st58" cx="106.8" cy="113" r="10.3"/>
<circle class="st59" cx="75.8" cy="155.3" r="10.3"/>
<circle class="st60" cx="358.3" cy="425.9" r="10.3"/>
<circle class="st61" cx="258.5" cy="455.4" r="10.3"/>
<circle class="st62" cx="310.4" cy="447.2" r="10.3"/>
<circle class="st63" cx="449.5" cy="301.9" r="10.3"/>
<circle class="st64" cx="399.2" cy="393" r="10.3"/>
<circle class="st65" cx="430.3" cy="350.8" r="10.3"/>
<circle class="st66" cx="112.5" cy="398.8" r="10.3"/>
<circle class="st67" cx="203.5" cy="449.3" r="10.3"/>
<circle class="st68" cx="154.7" cy="430" r="10.3"/>
<circle class="st69" cx="50.7" cy="257.9" r="10.3"/>
<circle class="st70" cx="79.8" cy="357.8" r="10.3"/>
<circle class="st71" cx="58.7" cy="309.7" r="10.3"/>
<circle class="st72" cx="393.7" cy="70.7" r="11.7"/>
<circle class="st73" cx="284.5" cy="24.9" r="11.7"/>
<circle class="st74" cx="342.1" cy="40.6" r="11.7"/>
<circle class="st75" cx="481.3" cy="222.3" r="11.7"/>
<circle class="st76" cx="435.9" cy="113" r="11.7"/>
<circle class="st77" cx="465.7" cy="164.7" r="11.7"/>
<circle class="st78" cx="112.3" cy="70.7" r="11.7"/>
<circle class="st79" cx="221.5" cy="24.9" r="11.7"/>
<circle class="st80" cx="164" cy="40.6" r="11.7"/>
<circle class="st81" cx="24.8" cy="222.3" r="11.7"/>
<circle class="st82" cx="70.2" cy="113" r="11.7"/>
<circle class="st83" cx="40.3" cy="164.7" r="11.7"/>
<circle class="st84" cx="393.7" cy="435.4" r="11.7"/>
<circle class="st85" cx="284.5" cy="481.2" r="11.7"/>
<circle class="st86" cx="342.1" cy="465.5" r="11.7"/>
<circle class="st87" cx="481.3" cy="283.8" r="11.7"/>
<circle class="st88" cx="435.9" cy="393.1" r="11.7"/>
<circle class="st89" cx="465.7" cy="341.4" r="11.7"/>
<circle class="st90" cx="112.3" cy="435.4" r="11.7"/>
<circle class="st91" cx="221.5" cy="481.2" r="11.7"/>
<circle class="st92" cx="164" cy="465.5" r="11.7"/>
<ellipse transform="matrix(0.9999 -1.020249e-02 1.020249e-02 0.9999 -2.8942 0.2678)" class="st93" cx="24.8" cy="283.8" rx="11.7" ry="11.7"/>
<ellipse transform="matrix(3.327795e-02 -0.9994 0.9994 3.327795e-02 -325.0184 450.1796)" class="st94" cx="70.2" cy="393.1" rx="11.7" ry="11.7"/>
<circle class="st95" cx="40.3" cy="341.4" r="11.7"/>
</svg>
