<?xml version="1.0" encoding="utf-8"?>
<!-- Generator: Adobe Illustrator 27.0.0, SVG Export Plug-In . SVG Version: 6.00 Build 0)  -->
<svg version="1.1" id="Capa_1" xmlns="http://www.w3.org/2000/svg" xmlns:xlink="http://www.w3.org/1999/xlink" x="0px" y="0px"
	 viewBox="0 0 800 800" style="enable-background:new 0 0 800 800;" xml:space="preserve">
<path d="M655.7,197.5h-80v-20.2c0-46.9-18.3-91-51.5-124.2C491.1,19.9,446.9,1.6,400,1.6c-96.9,0-175.7,78.8-175.7,175.7v20.2h-80
	c-44.3,0-80.4,36.1-80.4,80.4V718c0,44.3,36.1,80.4,80.4,80.4h511.4c44.3,0,80.4-36.1,80.4-80.4V277.9
	C736.1,233.6,700.1,197.5,655.7,197.5z M254.3,177.3C254.3,97,319.7,31.6,400,31.6c38.9,0,75.5,15.2,103,42.7
	c27.5,27.5,42.7,64.1,42.7,103v20.2H254.3V177.3z M706.1,718c0,27.8-22.6,50.4-50.4,50.4H144.3c-27.8,0-50.4-22.6-50.4-50.4V277.9
	c0-27.8,22.6-50.4,50.4-50.4h511.4c27.8,0,50.4,22.6,50.4,50.4V718z"/>
</svg>
